:SAMPLES-PER-SECOND 30
:FULLY-SPECIFIED
:DEGREES
198
root  -0.771731 38.9188 -1.82739 32.2498 -74.4262 -29.0908
RightUpLeg  16.556 -3.25998 8.65926
RightLeg  15.9111 -0.26787 -0.751413
RightFoot  7.37858 -0.37954 2.73095
RightToes  7.56698e-010 0 -3.6325e-017
Spine  7.82202 3.09116 5.92802
Spine1  3.46461 4.94534 -6.65474
HEad  -17.9039 -16.0206 11.917
LeftShoulder1  3.06261 -7.5155 -21.4315
LeftArm  -17.1527 24.9723 -44.2727
LeftForeArm  -0.551692 -61.0136 -22.4519
LeftHand  -1.25294 -2.77242 17.9589
RightShoulder  1.67616 2.90453 19.7797
RightArm  -25.6561 -7.47933 46.8658
RightForeArm  102.694 78.2483 115.448
RightHand  -1.24079 4.13436 -15.3321
LeftUpLeg  -31.0726 -2.44936 -2.20051
LeftLeg  36.5336 11.1281 9.07832
LeftFoot  6.29998 0.529633 -3.41196
LeftToes  -3.13779e-010 -2.47553e-011 -5.36621e-011
199
root  -0.907478 37.4373 -1.71506 36.1463 -77.0929 -34.4417
RightUpLeg  18.6916 1.4144 7.29519
RightLeg  19.049 5.5812 1.18803
RightFoot  -4.34345 -0.285941 4.19206
RightToes  7.56698e-010 0 -3.6325e-017
Spine  9.28233 3.55604 6.22891
Spine1  3.22898 6.14642 -8.91883
HEad  -19.4726 -15.2393 12.7311
LeftShoulder1  2.72996 -6.65718 -20.4529
LeftArm  -20.0306 34.9936 -42.4846
LeftForeArm  40.002 -77.7116 -68.7259
LeftHand  -0.983587 -1.21757 17.3636
RightShoulder  1.55477 2.72931 18.4732
RightArm  -30.5055 -7.2363 43.4407
RightForeArm  134.507 66.6807 153.726
RightHand  -1.1109 2.7534 -15.9636
LeftUpLeg  -30.8908 -1.43702 -3.45156
LeftLeg  42.5416 10.7894 10.8273
LeftFoot  -6.38472 -0.0547841 1.48974
LeftToes  -3.13779e-010 -2.47553e-011 -5.36621e-011
200
root  -0.993057 36.2243 -1.62333 29.4046 -76.5505 -29.7625
RightUpLeg  22.2011 4.35023 8.07175
RightLeg  20.7249 6.05067 2.10807
RightFoot  -15.3165 0.0423393 4.48301
RightToes  7.56698e-010 0 -3.6325e-017
Spine  10.3097 2.4482 4.71391
Spine1  5.69521 5.03076 -7.6204
HEad  -23.084 -13.9381 12.124
LeftShoulder1  2.55116 -6.06645 -20.2277
LeftArm  -22.2335 38.739 -41.1141
LeftForeArm  104.428 -74.4408 -135.681
LeftHand  -0.736576 0.0337643 15.9929
RightShoulder  1.4532 2.62071 17.1543
RightArm  -36.687 -6.62526 39.8985
RightForeArm  138.428 56.7189 162.445
RightHand  -0.995325 1.96017 -15.8314
LeftUpLeg  -31.6189 -1.88942 -5.41884
LeftLeg  48.8272 10.5739 13.0862
LeftFoot  -13.1037 0.12548 3.76252
LeftToes  -3.13779e-010 -2.47553e-011 -5.36621e-011
201
root  -1.0784 35.8872 -1.41153 24.4974 -74.6916 -25.4436
RightUpLeg  23.9387 2.69406 8.91329
RightLeg  20.2839 2.85809 0.574702
RightFoot  -17.8032 0.10184 3.98644
RightToes  7.56698e-010 0 -3.6325e-017
Spine  9.91859 1.43899 4.65402
Spine1  7.64695 3.73843 -5.97974
HEad  -25.9865 -13.2625 10.9641
LeftShoulder1  2.657 -6.29864 -20.7041
LeftArm  -22.3688 34.7675 -40.5325
LeftForeArm  108.564 -73.5073 -137.347
LeftHand  -0.597954 0.60202 14.605
RightShoulder  1.45167 2.59708 17.2224
RightArm  -39.7572 -9.14515 37.6935
RightForeArm  139.245 52.6134 164.704
RightHand  -0.973137 1.79473 -15.8303
LeftUpLeg  -32.0686 -1.76734 -6.59333
LeftLeg  50.9796 10.4005 13.8368
LeftFoot  -12.8469 0.139981 5.89144
LeftToes  -3.13779e-010 -2.47553e-011 -5.36621e-011
202
root  -0.943965 36.6921 -0.942114 25.1629 -75.4627 -25.1465
RightUpLeg  21.5199 2.40865 7.65284
RightLeg  20.6401 -0.223445 -0.709508
RightFoot  -10.7455 -0.104995 4.5958
RightToes  7.56698e-010 0 -3.6325e-017
Spine  10.1502 1.18287 6.89798
Spine1  6.23331 3.81548 -7.39213
HEad  -26.4004 -11.9304 9.33365
LeftShoulder1  2.80079 -6.89795 -20.5188
LeftArm  -20.614 26.1736 -42.7035
LeftForeArm  63.7787 -78.2412 -85.8446
LeftHand  -0.762082 -0.0892529 16.0252
RightShoulder  1.53195 2.77571 17.8789
RightArm  -35.9439 -13.2151 40.2737
RightForeArm  140.699 56.1635 162.92
RightHand  -1.00563 1.82816 -16.2693
LeftUpLeg  -30.5442 1.21334 -7.64349
LeftLeg  45.7216 9.85287 11.1286
LeftFoot  -8.40446 -0.200398 8.75937
LeftToes  -3.13779e-010 -2.47553e-011 -5.36621e-011
203
root  -0.414429 38.2525 -0.304379 24.7874 -78.7641 -23.7828
RightUpLeg  15.4854 5.0552 4.54267
RightLeg  24.5772 -1.49001 -0.914163
RightFoot  2.32656 -0.379645 3.62421
RightToes  7.56698e-010 0 -3.6325e-017
Spine  12.4271 0.819061 8.45481
Spine1  3.03267 3.80224 -9.7451
HEad  -25.8422 -8.08973 6.51292
LeftShoulder1  2.75824 -7.08261 -19.5767
LeftArm  -18.1435 16.3431 -47.2426
LeftForeArm  9.38533 -63.8318 -23.2881
LeftHand  -1.26161 -1.453 21.3615
RightShoulder  1.58363 3.09344 17.4552
RightArm  -29.7981 -14.2546 47.4833
RightForeArm  132.723 68.7882 148.589
RightHand  -1.10198 2.70687 -15.9805
LeftUpLeg  -26.5055 6.60991 -9.38135
LeftLeg  33.4428 6.00688 4.83979
LeftFoot  -0.656438 -0.396663 5.3857
LeftToes  -3.13779e-010 -2.47553e-011 -5.36621e-011
204
root  0.274597 39.6976 0.264888 19.7429 -81.0842 -18.4076
RightUpLeg  7.35295 6.34171 1.68507
RightLeg  32.305 -3.1824 -2.50713
RightFoot  14.3448 0.0500889 0.185515
RightToes  7.56698e-010 0 -3.6325e-017
Spine  14.8063 -0.495887 7.03531
Spine1  1.05497 1.76463 -8.36499
HEad  -25.7259 -1.92409 2.72891
LeftShoulder1  2.69009 -6.88536 -19.4116
LeftArm  -12.3876 6.23139 -50.8572
LeftForeArm  0.405174 -39.7274 -8.62362
LeftHand  -1.60769 -1.39722 27.4153
RightShoulder  1.61773 3.46312 16.5871
RightArm  -25.9288 -9.2435 53.5226
RightForeArm  62.5884 78.1039 71.7852
RightHand  -1.44509 5.24697 -15.9308
LeftUpLeg  -21.356 11.0976 -9.95023
LeftLeg  20.6743 -1.26999 -0.44401
LeftFoot  8.10377 1.72527 -10.1095
LeftToes  -3.13779e-010 -2.47553e-011 -5.36621e-011
